<svg width="77" height="84" viewBox="0 0 77 84" fill="none" xmlns="http://www.w3.org/2000/svg">
<path d="M9.98154 65.8646C9.81304 65.856 9.64453 65.8389 9.47317 65.8389C4.46949 65.8389 0.411133 69.8972 0.411133 74.9009C0.411133 79.9046 4.46949 83.9629 9.47317 83.9629C14.4769 83.9629 18.5352 79.9046 18.5352 74.9009V65.8646H9.98154Z" fill="url(#paint0_linear_5125_11992)"/>
<path d="M19.5806 38.0349L19.6006 29.6526C19.612 25.0059 22.4166 20.7676 26.7549 19.1054C28.6884 18.3657 30.7418 17.8716 32.8752 17.6517L32.2955 13.2506L9.42189 9.0752C7.39414 10.6917 5.52062 12.491 3.82702 14.453C1.31661 17.3547 0 21.0989 0 24.9373V48.305C0 50.9068 1.01959 53.2716 2.67891 55.0223L7.98248 52.2634L19.5835 38.0377L19.5806 38.0349Z" fill="url(#paint1_linear_5125_11992)"/>
<path d="M36.8786 0.0277867C23.684 -0.449163 11.7802 5.24853 3.82632 14.4505C3.61783 14.6933 3.41791 14.9417 3.22656 15.1959C18.4661 14.2335 26.5714 16.3155 30.5126 18.0176C32.0749 17.6978 33.6885 17.5236 35.345 17.5236C48.9937 17.5236 60.0321 28.9161 59.4495 42.6905C59.2981 46.2776 58.3442 49.6762 56.7677 52.7064L76.6739 46.8488C76.9538 44.6154 77.0566 42.3306 76.9681 40.003C76.1256 18.3461 58.5413 0.810327 36.8786 0.0277867Z" fill="url(#paint2_linear_5125_11992)"/>
<path d="M76.9663 40.0067C76.2865 22.4538 64.6056 7.60838 48.672 2.19629C53.7814 10.6928 61.067 25.5754 59.3306 39.0899C59.4562 40.2694 59.4991 41.4718 59.4477 42.6941C58.9364 54.8378 49.2804 64.8166 37.1596 65.7162C36.6055 65.7562 36.0514 65.7791 35.5059 65.7819C30.8992 65.8133 27.1465 69.4661 27.1465 74.0728V75.1924C27.1465 79.6534 30.7964 83.3062 35.2575 83.312H35.3403C58.8565 83.312 77.883 63.7256 76.9634 40.0095L76.9663 40.0067Z" fill="url(#paint3_linear_5125_11992)"/>
<path d="M53.8148 57.1302C49.7508 61.9711 43.8332 65.2183 37.1644 65.7124C36.6104 65.7524 36.0563 65.7752 35.5108 65.7781C30.9041 65.8095 27.1514 69.4623 27.1514 74.069V75.1886C27.1514 79.6496 30.8013 83.3024 35.2624 83.3081H35.3452C58.8614 83.3081 77.8879 63.7218 76.9683 40.0057C76.894 38.0608 76.677 36.153 76.3428 34.2852C68.5289 47.8825 59.3012 54.3056 53.8177 57.1302H53.8148Z" fill="url(#paint4_linear_5125_11992)"/>
<path d="M70.9649 63.3691C47.1803 78.0118 33.2831 73.1109 28.2251 70.155C27.4968 71.3802 27.0713 72.8053 27.0713 74.3418V75.4614C27.0713 79.9224 30.7212 83.5752 35.1823 83.5809H35.2651C50.3961 83.5809 63.665 75.4699 70.9621 63.372L70.9649 63.3691Z" fill="url(#paint5_linear_5125_11992)"/>
<path d="M1.46875 53.4542C3.19376 56.2302 6.26966 58.078 9.77681 58.078C15.1689 58.078 19.5414 53.714 19.5557 48.3248L19.6014 29.6524C19.6071 27.1163 20.4496 24.7058 21.9176 22.7666C16.2199 25.3256 7.10646 32.6312 1.46875 53.4542Z" fill="url(#paint6_linear_5125_11992)"/>
<defs>
<linearGradient id="paint0_linear_5125_11992" x1="0.411133" y1="74.9009" x2="18.5352" y2="74.9009" gradientUnits="userSpaceOnUse">
<stop offset="0.09" stop-color="#78AEEF"/>
<stop offset="1" stop-color="#8E4CCC"/>
</linearGradient>
<linearGradient id="paint1_linear_5125_11992" x1="-2.7446" y1="33.5995" x2="34.7173" y2="26.9936" gradientUnits="userSpaceOnUse">
<stop stop-color="#5D53DB"/>
<stop offset="0.04" stop-color="#675ADB"/>
<stop offset="0.23" stop-color="#9379DF"/>
<stop offset="0.41" stop-color="#B692E1"/>
<stop offset="0.58" stop-color="#CEA4E3"/>
<stop offset="0.74" stop-color="#DDAFE4"/>
<stop offset="0.87" stop-color="#E3B3E5"/>
</linearGradient>
<linearGradient id="paint2_linear_5125_11992" x1="3.22656" y1="26.3543" x2="76.9966" y2="26.3543" gradientUnits="userSpaceOnUse">
<stop stop-color="#60ABEF"/>
<stop offset="0.75" stop-color="#BE5AE2"/>
</linearGradient>
<linearGradient id="paint3_linear_5125_11992" x1="54.5354" y1="77.4372" x2="44.885" y2="-1.17091" gradientUnits="userSpaceOnUse">
<stop offset="0.3" stop-color="#6886D8"/>
<stop offset="1" stop-color="#AABBF7"/>
</linearGradient>
<linearGradient id="paint4_linear_5125_11992" x1="31.5667" y1="83.291" x2="81.3351" y2="40.0314" gradientUnits="userSpaceOnUse">
<stop offset="0.09" stop-color="#78AEEF"/>
<stop offset="1" stop-color="#8E4CCC"/>
</linearGradient>
<linearGradient id="paint5_linear_5125_11992" x1="27.5939" y1="78.543" x2="71.9874" y2="67.4732" gradientUnits="userSpaceOnUse">
<stop stop-color="#5093DD"/>
<stop offset="1" stop-color="#A440BC"/>
</linearGradient>
<linearGradient id="paint6_linear_5125_11992" x1="1.46875" y1="40.4252" x2="21.9176" y2="40.4252" gradientUnits="userSpaceOnUse">
<stop offset="0.09" stop-color="#78AEEF"/>
<stop offset="1" stop-color="#8E4CCC"/>
</linearGradient>
</defs>
</svg>
