<svg width="40" height="40" viewBox="0 0 40 40" fill="none" xmlns="http://www.w3.org/2000/svg">
<path d="M39.2146 19.6073C39.2146 30.4359 30.4359 39.2146 19.6073 39.2146C8.7797 39.2146 0 30.4359 0 19.6073C0 8.7797 8.7797 0 19.6073 0C30.4359 0 39.2146 8.7797 39.2146 19.6073Z" fill="#FFCC4D"/>
<path d="M17.4286 19.6072C16.9722 19.6072 16.5474 19.3186 16.3949 18.8622C16.1738 18.2097 15.2871 16.3394 14.1608 16.3394C13.0039 16.3394 12.1042 18.3295 11.9266 18.8622C11.736 19.4319 11.1227 19.7423 10.5487 19.5506C9.97787 19.3611 9.6696 18.7434 9.86023 18.1726C9.99639 17.7631 11.2807 14.1608 14.1608 14.1608C17.0408 14.1608 18.3251 17.7631 18.4624 18.1737C18.653 18.7445 18.3447 19.3621 17.7739 19.5517C17.6585 19.5887 17.5419 19.6072 17.4286 19.6072ZM28.3216 19.6072C27.8652 19.6072 27.4403 19.3186 27.2889 18.8622C27.0678 18.2097 26.1789 16.3394 25.0537 16.3394C23.8969 16.3394 22.996 18.3295 22.8185 18.8622C22.6278 19.4319 22.0167 19.7423 21.4405 19.5506C20.8708 19.3611 20.5614 18.7434 20.7521 18.1726C20.8893 17.7631 22.1725 14.1608 25.0537 14.1608C27.9349 14.1608 29.2181 17.7631 29.3542 18.1737C29.5448 18.7445 29.2366 19.3621 28.6658 19.5517C28.5514 19.5887 28.4349 19.6072 28.3216 19.6072ZM19.6072 23.9644C15.6607 23.9644 13.0421 23.5047 9.80359 22.8751C9.06396 22.7324 7.625 22.8751 7.625 25.0537C7.625 29.4109 12.6303 34.8573 19.6072 34.8573C26.5831 34.8573 31.5894 29.4109 31.5894 25.0537C31.5894 22.8751 30.1505 22.7313 29.4109 22.8751C26.1724 23.5047 23.5537 23.9644 19.6072 23.9644Z" fill="#664500"/>
<path d="M9.80371 25.0537C9.80371 25.0537 13.0716 26.143 19.6073 26.143C26.1431 26.143 29.411 25.0537 29.411 25.0537C29.411 25.0537 27.947 32.4064 19.6073 32.4064C11.2677 32.4064 9.80371 25.0537 9.80371 25.0537Z" fill="white"/>
<path d="M19.6079 30.0579C15.6908 30.0579 12.7758 29.6527 10.9621 29.2464L10.0635 27.2084C10.96 27.5482 14.2997 28.1855 19.609 28.1855C25.0053 28.1855 28.3636 27.5144 29.2644 27.1637L28.5009 29.1702C26.7209 29.5841 23.6873 30.0579 19.6079 30.0579Z" fill="#664500"/>
</svg>
