<svg width="90" height="90" viewBox="0 0 90 90" fill="none" xmlns="http://www.w3.org/2000/svg">
<path d="M90 45C90 69.8525 69.8525 90 45 90C20.15 90 0 69.8525 0 45C0 20.15 20.15 0 45 0C69.8525 0 90 20.15 90 45Z" fill="#FFCC4D"/>
<path d="M39.9994 45.001C38.9519 45.001 37.9769 44.3385 37.6269 43.291C37.1194 41.7935 35.0844 37.501 32.4994 37.501C29.8444 37.501 27.7794 42.0685 27.3719 43.291C26.9344 44.5985 25.5269 45.311 24.2094 44.871C22.8994 44.436 22.1919 43.0185 22.6294 41.7085C22.9419 40.7685 25.8894 32.501 32.4994 32.501C39.1094 32.501 42.0569 40.7685 42.3719 41.711C42.8094 43.021 42.1019 44.4385 40.7919 44.8735C40.5269 44.9585 40.2594 45.001 39.9994 45.001ZM64.9994 45.001C63.9519 45.001 62.9769 44.3385 62.6294 43.291C62.1219 41.7935 60.0819 37.501 57.4994 37.501C54.8444 37.501 52.7769 42.0685 52.3694 43.291C51.9319 44.5985 50.5294 45.311 49.2069 44.871C47.8994 44.436 47.1894 43.0185 47.6269 41.7085C47.9419 40.7685 50.8869 32.501 57.4994 32.501C64.1119 32.501 67.0569 40.7685 67.3694 41.711C67.8069 43.021 67.0994 44.4385 65.7894 44.8735C65.5269 44.9585 65.2594 45.001 64.9994 45.001Z" fill="#664500"/>
<path d="M61.7094 62.5H26.7094C25.3294 62.5 24.2094 61.3825 24.2094 60C24.2094 58.6175 25.3294 57.5 26.7094 57.5H61.7094C63.0919 57.5 64.2094 58.6175 64.2094 60C64.2094 61.3825 63.0919 62.5 61.7094 62.5Z" fill="#664500"/>
<g clip-path="url(#clip0_14701_13621)">
<path d="M79.6997 40.1171C83.1625 40.1171 85.9696 37.3099 85.9696 33.8471C85.9696 30.3843 83.1625 27.5771 79.6997 27.5771C76.2369 27.5771 73.4297 30.3843 73.4297 33.8471C73.4297 37.3099 76.2369 40.1171 79.6997 40.1171Z" fill="#67BFD2"/>
<path d="M79.7003 11L85.5022 31.4848H73.8984L79.7003 11Z" fill="#67BFD2"/>
</g>
<defs>
<clipPath id="clip0_14701_13621">
<rect width="13.3989" height="29.1168" fill="white" transform="translate(73 11)"/>
</clipPath>
</defs>
</svg>
