<svg width="90" height="90" viewBox="0 0 90 90" fill="none" xmlns="http://www.w3.org/2000/svg">
<path d="M90 45C90 69.8525 69.8525 90 45 90C20.1475 90 0 69.8525 0 45C0 20.1475 20.1475 0 45 0C69.8525 0 90 20.1475 90 45Z" fill="#FFCC4D"/>
<path d="M72.5 25.0007C58.615 25.0007 52.995 14.0832 52.7625 13.6182C52.145 12.3832 52.645 10.8807 53.88 10.2632C55.1125 9.64823 56.61 10.1432 57.23 11.3707C57.4175 11.7357 61.7825 20.0007 72.5 20.0007C73.8825 20.0007 75 21.1207 75 22.5007C75 23.8807 73.8825 25.0007 72.5 25.0007ZM17.5 25.0007C16.12 25.0007 15 23.8807 15 22.5007C15 21.1207 16.12 20.0007 17.5 20.0007C30.2075 20.0007 32.49 12.2007 32.5825 11.8682C32.945 10.5482 34.3125 9.74823 35.63 10.0957C36.955 10.4432 37.7575 11.7782 37.425 13.1082C37.3025 13.5932 34.26 25.0007 17.5 25.0007ZM63.635 76.9782C63.34 76.3357 56.29 61.2507 45.61 61.2507C34.9875 61.2507 26.745 76.2682 26.4 76.9057C26.1175 77.4282 26.2425 78.0782 26.6975 78.4582C26.93 78.6532 27.215 78.7507 27.5 78.7507C27.775 78.7507 28.05 78.6607 28.2775 78.4782C28.355 78.4182 36.185 72.2807 45.61 72.2807C54.9675 72.2807 61.58 78.3557 61.645 78.4157C62.0825 78.8207 62.75 78.8657 63.23 78.5157C63.715 78.1657 63.885 77.5232 63.635 76.9782Z" fill="#664500"/>
<path fill-rule="evenodd" clip-rule="evenodd" d="M19.8216 53.6656C20.916 54.7601 22.6905 54.7601 23.785 53.6656L28.2431 49.2075L32.7021 53.6665C33.7966 54.761 35.5711 54.761 36.6656 53.6665C37.7601 52.572 37.7601 50.7975 36.6656 49.7031L32.2066 45.244L36.6663 40.7843C37.7607 39.6898 37.7607 37.9153 36.6663 36.8209C35.5718 35.7264 33.7973 35.7264 32.7028 36.8209L28.2431 41.2806L23.7843 36.8218C22.6898 35.7273 20.9153 35.7273 19.8209 36.8218C18.7264 37.9163 18.7264 39.6908 19.8209 40.7853L24.2796 45.244L19.8216 49.7021C18.7271 50.7966 18.7271 52.5711 19.8216 53.6656Z" fill="#664500"/>
<path fill-rule="evenodd" clip-rule="evenodd" d="M54.3333 53.6656C55.4278 54.7601 57.2023 54.7601 58.2967 53.6656L62.7548 49.2075L67.2138 53.6665C68.3083 54.761 70.0828 54.761 71.1773 53.6665C72.2718 52.572 72.2718 50.7975 71.1773 49.7031L66.7183 45.244L71.178 40.7843C72.2725 39.6898 72.2725 37.9153 71.178 36.8209C70.0835 35.7264 68.309 35.7264 67.2145 36.8209L62.7548 41.2806L58.296 36.8218C57.2016 35.7273 55.4271 35.7273 54.3326 36.8218C53.2381 37.9163 53.2381 39.6908 54.3326 40.7853L58.7914 45.244L54.3333 49.7021C53.2388 50.7966 53.2388 52.5711 54.3333 53.6656Z" fill="#664500"/>
<g clip-path="url(#clip0_14700_13526)">
<path d="M13.4709 77.8585C16.8157 78.7548 20.2538 76.7698 21.15 73.425C22.0463 70.0801 20.0613 66.6421 16.7165 65.7458C13.3717 64.8496 9.93361 66.8346 9.03737 70.1794C8.14112 73.5242 10.1261 76.9623 13.4709 77.8585Z" fill="#67BFD2"/>
<path d="M21.0065 49.7341L21.3089 71.0225L10.1005 68.0192L21.0065 49.7341Z" fill="#67BFD2"/>
</g>
<defs>
<clipPath id="clip0_14700_13526">
<rect width="13.3989" height="29.1168" fill="white" transform="translate(14.5352 48) rotate(15)"/>
</clipPath>
</defs>
</svg>
