<svg width="42" height="42" viewBox="0 0 42 42" fill="none" xmlns="http://www.w3.org/2000/svg">
<path d="M41.7022 20.8511C41.7022 32.3667 32.3667 41.7022 20.8511 41.7022C9.33667 41.7022 0 32.3667 0 20.8511C0 9.33667 9.33667 0 20.8511 0C32.3667 0 41.7022 9.33667 41.7022 20.8511Z" fill="#FFCC4D"/>
<path d="M13.3218 23.1678C14.9212 23.1678 16.2178 21.3526 16.2178 19.1135C16.2178 16.8743 14.9212 15.0591 13.3218 15.0591C11.7224 15.0591 10.4258 16.8743 10.4258 19.1135C10.4258 21.3526 11.7224 23.1678 13.3218 23.1678Z" fill="#664500"/>
<path d="M28.3804 23.1678C29.9798 23.1678 31.2764 21.3526 31.2764 19.1135C31.2764 16.8743 29.9798 15.0591 28.3804 15.0591C26.781 15.0591 25.4844 16.8743 25.4844 19.1135C25.4844 21.3526 26.781 23.1678 28.3804 23.1678Z" fill="#664500"/>
<path d="M28.9599 30.1183H12.7424C12.1029 30.1183 11.584 29.6005 11.584 28.9599C11.584 28.3193 12.1029 27.8015 12.7424 27.8015H28.9599C29.6005 27.8015 30.1183 28.3193 30.1183 28.9599C30.1183 29.6005 29.6005 30.1183 28.9599 30.1183Z" fill="#664500"/>
</svg>
