<svg width="41" height="41" viewBox="0 0 41 41" fill="none" xmlns="http://www.w3.org/2000/svg">
<path d="M40.8902 20.4451C40.8902 31.7365 31.7365 40.8902 20.4451 40.8902C9.15373 40.8902 0 31.7365 0 20.4451C0 9.15373 9.15373 0 20.4451 0C31.7365 0 40.8902 9.15373 40.8902 20.4451Z" fill="#FFCC4D"/>
<path d="M32.9393 11.3583C26.6308 11.3583 24.0775 6.39808 23.9718 6.18682C23.6913 5.62571 23.9185 4.94307 24.4796 4.66252C25.0395 4.3831 25.7199 4.608 26.0016 5.1657C26.0868 5.33153 28.0699 9.08662 32.9393 9.08662C33.5674 9.08662 34.0751 9.59547 34.0751 10.2225C34.0751 10.8494 33.5674 11.3583 32.9393 11.3583ZM7.95082 11.3583C7.32384 11.3583 6.81498 10.8494 6.81498 10.2225C6.81498 9.59547 7.32384 9.08662 7.95082 9.08662C13.7243 9.08662 14.7613 5.5428 14.8033 5.39173C14.968 4.79201 15.5893 4.42854 16.1879 4.58642C16.7899 4.7443 17.1545 5.35084 17.0035 5.95511C16.9478 6.17546 15.5655 11.3583 7.95082 11.3583ZM6.81612 26.1242C6.47082 26.1242 6.13007 25.9675 5.90631 25.6699C5.52921 25.169 5.63144 24.4568 6.13348 24.0808C6.2959 23.9593 9.48534 21.6013 13.9208 20.7494C11.1096 19.3398 7.98944 19.3092 7.94969 19.3092C7.3227 19.308 6.81498 18.798 6.81612 18.1711C6.81612 17.5452 7.32384 17.0375 7.95082 17.0375C8.20184 17.0375 14.1434 17.0807 17.8406 20.7778C18.1654 21.1027 18.2631 21.5911 18.0871 22.0159C17.911 22.4407 17.4964 22.7167 17.0375 22.7167C11.7979 22.7167 7.53851 25.8652 7.49649 25.897C7.29203 26.0504 7.05237 26.1242 6.81612 26.1242ZM34.074 26.1231C33.8377 26.1231 33.5992 26.0504 33.3948 25.8982C33.3516 25.8652 29.0661 22.7167 23.8526 22.7167C23.3937 22.7167 22.978 22.4407 22.8031 22.0159C22.627 21.5911 22.7247 21.1027 23.0495 20.7778C26.7478 17.0807 32.6883 17.0375 32.9393 17.0375C33.5663 17.0375 34.0729 17.5452 34.074 18.1711C34.0751 18.798 33.5674 19.3069 32.9416 19.3092C32.9007 19.3092 29.7805 19.3398 26.9693 20.7494C31.4048 21.6013 34.5942 23.9582 34.7555 24.0808C35.2564 24.4568 35.3586 25.1667 34.9838 25.6687C34.7612 25.9652 34.4204 26.1231 34.074 26.1231ZM28.9116 34.9735C28.7776 34.6816 25.5745 27.828 20.7222 27.828C15.896 27.828 12.1512 34.651 11.9944 34.9406C11.8661 35.178 11.9229 35.4733 12.1296 35.646C12.2352 35.7345 12.3647 35.7788 12.4942 35.7788C12.6191 35.7788 12.7441 35.738 12.8474 35.655C12.8826 35.6278 16.4401 32.8393 20.7222 32.8393C24.9736 32.8393 27.9779 35.5994 28.0075 35.6266C28.2062 35.8106 28.5095 35.8311 28.7276 35.6721C28.9479 35.5131 29.0252 35.2211 28.9116 34.9735Z" fill="#664500"/>
</svg>
