<svg width="21" height="22" viewBox="0 0 21 22" fill="none" xmlns="http://www.w3.org/2000/svg">
<path d="M5.92773 16.6709H14.0105V21.0147H5.92773V16.6709Z" fill="white"/>
<path d="M12.897 6.98919V1.07837H7.25915V6.98919H0.984375V17.1731H18.8078V6.98919H12.897Z" fill="white"/>
<path d="M18.4553 5.66482H15.4291C15.0871 5.66482 14.7821 5.62101 14.5883 5.46262C14.3996 5.30761 14.3457 5.006 14.3406 4.76842V1.66811C14.3406 0.749805 13.5892 0 12.6725 0H7.45087C6.53257 0 5.78108 0.749805 5.78108 1.66811V4.76842C5.77771 5.006 5.72211 5.30761 5.53508 5.46262C5.34131 5.62269 5.03633 5.66482 4.69428 5.66482H1.66979C0.749805 5.66482 0 6.41462 0 7.33461V21.0148H7.26552V18.8277C7.26552 18.3155 7.68171 17.8959 8.19562 17.8959H11.9278C12.44 17.8959 12.8596 18.3155 12.8596 18.8277V21.0148H20.1268V7.33461C20.1251 6.41462 19.3736 5.66482 18.4553 5.66482ZM4.14499 15.4746H2.06912V12.8292H4.14499V15.4746ZM4.14499 11.2707H2.06912V8.62528H4.14499V11.2707ZM7.62273 15.4746H5.54687V12.8292H7.62273V15.4746ZM7.62273 11.2707H5.54687V8.62528H7.62273V11.2707ZM11.0988 15.4746H9.02125V12.8292H11.0988V15.4746ZM11.0988 11.2707H9.02125V8.62528H11.0988V11.2707ZM14.5749 15.4746H12.5007V12.8292H14.5749V15.4746ZM14.5749 11.2707H12.5007V8.62528H14.5749V11.2707ZM18.0526 15.4746H15.9767V12.8292H18.0526V15.4746ZM18.0526 11.2707H15.9767V8.62528H18.0526V11.2707Z" fill="#B4BABF"/>
<path d="M11.9142 4.03037C11.9142 4.21908 11.7609 4.3741 11.5722 4.3741H11.0127C10.824 4.3741 10.669 4.52911 10.669 4.71783V5.27723C10.669 5.46595 10.514 5.62096 10.3253 5.62096H9.79958C9.61087 5.62096 9.45585 5.46595 9.45585 5.27723V4.71783C9.45585 4.52911 9.30084 4.3741 9.11212 4.3741H8.55272C8.364 4.3741 8.20898 4.21908 8.20898 4.03037V3.50466C8.20898 3.31594 8.364 3.16093 8.55272 3.16093H9.11212C9.30084 3.16093 9.45585 3.00591 9.45585 2.8172V2.25779C9.45585 2.06908 9.61087 1.91406 9.79958 1.91406H10.3253C10.514 1.91406 10.669 2.06908 10.669 2.25779V2.8172C10.669 3.00591 10.824 3.16093 11.0127 3.16093H11.5722C11.7609 3.16093 11.9142 3.31594 11.9142 3.50466V4.03037Z" fill="white"/>
</svg>
