<svg width="19" height="19" viewBox="0 0 19 19" fill="none" xmlns="http://www.w3.org/2000/svg">
<path d="M9.5 10.6875C12.6706 10.6875 19 12.2787 19 15.4375V19H0V15.4375C0 12.2787 6.32937 10.6875 9.5 10.6875ZM9.5 0C10.7598 0 11.968 0.500445 12.8588 1.39124C13.7496 2.28204 14.25 3.49022 14.25 4.75C14.25 6.00978 13.7496 7.21796 12.8588 8.10876C11.968 8.99955 10.7598 9.5 9.5 9.5C8.24022 9.5 7.03204 8.99955 6.14124 8.10876C5.25044 7.21796 4.75 6.00978 4.75 4.75C4.75 3.49022 5.25044 2.28204 6.14124 1.39124C7.03204 0.500445 8.24022 0 9.5 0ZM9.5 12.9437C5.97312 12.9437 2.25625 14.6775 2.25625 15.4375V16.7437H16.7437V15.4375C16.7437 14.6775 13.0269 12.9437 9.5 12.9437ZM9.5 2.25625C8.83862 2.25625 8.20432 2.51898 7.73665 2.98665C7.26898 3.45432 7.00625 4.08862 7.00625 4.75C7.00625 5.41138 7.26898 6.04568 7.73665 6.51335C8.20432 6.98102 8.83862 7.24375 9.5 7.24375C10.1614 7.24375 10.7957 6.98102 11.2633 6.51335C11.731 6.04568 11.9938 5.41138 11.9938 4.75C11.9938 4.08862 11.731 3.45432 11.2633 2.98665C10.7957 2.51898 10.1614 2.25625 9.5 2.25625Z" fill="#B4BABF"/>
</svg>
